<svg xmlns="http://www.w3.org/2000/svg" version="1.1" xmlns:xlink="http://www.w3.org/1999/xlink" xmlns:svgjs="http://svgjs.com/svgjs" width="1440" height="560" preserveAspectRatio="none" viewBox="0 0 1440 560"><g mask="url(&quot;#SvgjsMask1291&quot;)" fill="none"><path d="M -954.740112815454,372 C -858.74,343.6 -666.74,245.6 -474.7401128154541,230 C -282.74,214.4 -186.74,294.8 5.259887184545903,294 C 197.26,293.2 293.26,215.6 485.2598871845459,226 C 677.26,236.4 774.31,350.4 965.259887184546,346 C 1156.21,341.6 1345.05,232.4 1440,204" stroke="rgba(254, 239, 206, 1)" stroke-width="2"></path><path d="M -325.1800670195744,279 C -229.18,299 -37.18,381.8 154.81993298042562,379 C 346.82,376.2 442.82,273.2 634.8199329804256,265 C 826.82,256.8 922.82,340.4 1114.8199329804256,338 C 1306.82,335.6 1529.78,246.6 1594.8199329804256,253 C 1659.86,259.4 1470.96,346.6 1440,370" stroke="rgba(254, 239, 206, 1)" stroke-width="2"></path><path d="M -779.1888621277933,346 C -683.19,323.8 -491.19,247.4 -299.1888621277933,235 C -107.19,222.6 -11.19,282.4 180.8111378722067,284 C 372.81,285.6 468.81,242.6 660.8111378722067,243 C 852.81,243.4 984.97,298 1140.8111378722067,286 C 1296.65,274 1380.16,203.6 1440,183" stroke="rgba(254, 239, 206, 1)" stroke-width="2"></path><path d="M -391.53565143804883,180 C -295.54,213.4 -103.54,344.4 88.4643485619512,347 C 280.46,349.6 376.46,205.2 568.4643485619512,193 C 760.46,180.8 856.46,287.6 1048.4643485619513,286 C 1240.46,284.4 1450.16,181.2 1528.4643485619513,185 C 1606.77,188.8 1457.69,281 1440,305" stroke="rgba(254, 239, 206, 1)" stroke-width="2"></path><path d="M -455.760480756097,229 C -359.76,245.4 -167.76,317.8 24.239519243902983,311 C 216.24,304.2 312.24,190 504.239519243903,195 C 696.24,200 792.24,336 984.239519243903,336 C 1176.24,336 1373.09,205.4 1464.239519243903,195 C 1555.39,184.6 1444.85,266.2 1440,284" stroke="rgba(254, 239, 206, 1)" stroke-width="2"></path></g><defs><mask id="SvgjsMask1291"><rect width="1440" height="560" fill="#ffffff"></rect></mask></defs></svg>